<?xml version="1.0" encoding="UTF-8" standalone="no"?><!-- Generator: Gravit.io --><svg xmlns="http://www.w3.org/2000/svg" xmlns:xlink="http://www.w3.org/1999/xlink" style="isolation:isolate" viewBox="0 0 125 125" width="125pt" height="125pt"><defs><clipPath id="_clipPath_JTXNOETC6wWVPSyf3EHFv34zFO312JzT"><rect width="125" height="125"/></clipPath></defs><g clip-path="url(#_clipPath_JTXNOETC6wWVPSyf3EHFv34zFO312JzT)"><path d=" M 28.185 51.27 L 28.185 51.27 Q 37.613 51.27 42.084 55.082 L 42.084 55.082 L 42.084 55.082 Q 46.556 58.895 46.556 65.065 L 46.556 65.065 L 46.556 65.065 Q 46.556 67.145 46.001 69.71 L 46.001 69.71 L 46.001 69.71 Q 44.684 75.394 41.079 79.658 L 41.079 79.658 L 41.079 79.658 Q 37.474 83.921 32.24 86.243 L 32.24 86.243 L 32.24 86.243 Q 27.006 88.566 20.906 88.566 L 20.906 88.566 L 20.906 88.566 Q 11.27 88.566 6.66 84.718 L 6.66 84.718 L 6.66 84.718 Q 2.05 80.871 2.05 74.493 L 2.05 74.493 L 2.05 74.493 Q 2.05 72.344 2.605 69.71 L 2.605 69.71 L 2.605 69.71 Q 3.922 64.302 7.631 60.108 L 7.631 60.108 L 7.631 60.108 Q 11.339 55.914 16.712 53.592 L 16.712 53.592 L 16.712 53.592 Q 22.084 51.27 28.185 51.27 L 28.185 51.27 Z  M 27.977 57.439 L 27.977 57.439 Q 26.521 57.439 24.892 60.039 L 24.892 60.039 L 24.892 60.039 Q 23.263 62.639 21.045 69.848 L 21.045 69.848 L 21.045 69.848 Q 18.826 77.058 18.826 79.969 L 18.826 79.969 L 18.826 79.969 Q 18.826 81.495 19.312 82.015 L 19.312 82.015 L 19.312 82.015 Q 19.797 82.534 20.629 82.534 L 20.629 82.534 L 20.629 82.534 Q 22.084 82.673 23.644 80.039 L 23.644 80.039 L 23.644 80.039 Q 25.204 77.405 27.561 69.779 L 27.561 69.779 L 27.561 69.779 Q 29.71 63.055 29.71 60.004 L 29.71 60.004 L 29.71 60.004 Q 29.71 58.549 29.259 57.994 L 29.259 57.994 L 29.259 57.994 Q 28.809 57.439 27.977 57.439 L 27.977 57.439 Z  M 92.17 64.718 L 87.942 78.375 L 87.942 78.375 Q 87.803 78.652 87.803 79.207 L 87.803 79.207 L 87.803 79.207 Q 87.803 79.692 88.046 79.969 L 88.046 79.969 L 88.046 79.969 Q 88.288 80.247 88.704 80.247 L 88.704 80.247 L 88.704 80.247 Q 89.536 80.247 90.125 79.519 L 90.125 79.519 L 90.125 79.519 Q 90.715 78.791 90.923 78.791 L 90.923 78.791 L 90.923 78.791 Q 91.269 78.791 91.477 79.242 L 91.477 79.242 L 91.477 79.242 Q 91.685 79.692 91.685 80.316 L 91.685 80.316 L 91.685 80.316 Q 91.754 82.326 90.368 84.233 L 90.368 84.233 L 90.368 84.233 Q 88.982 86.139 86.313 87.352 L 86.313 87.352 L 86.313 87.352 Q 83.644 88.566 79.9 88.566 L 79.9 88.566 L 79.9 88.566 Q 75.325 88.566 72.621 86.451 L 72.621 86.451 L 72.621 86.451 Q 69.918 84.337 69.848 80.801 L 69.848 80.801 L 69.848 80.801 Q 69.848 78.236 71.096 75.048 L 71.096 75.048 L 74.909 65.065 L 74.909 65.065 Q 75.256 64.164 75.256 63.609 L 75.256 63.609 L 75.256 63.609 Q 75.256 62.708 74.666 62.188 L 74.666 62.188 L 74.666 62.188 Q 74.077 61.668 73.245 61.668 L 73.245 61.668 L 73.245 61.668 Q 71.928 61.668 70.576 62.881 L 70.576 62.881 L 70.576 62.881 Q 69.224 64.094 68.392 66.798 L 68.392 66.798 L 68.392 66.659 L 64.025 80.732 L 64.025 80.732 Q 63.817 81.564 63.817 82.188 L 63.817 82.188 L 63.817 82.188 Q 63.817 83.089 64.164 83.609 L 64.164 83.609 L 64.164 83.609 Q 64.51 84.129 65.134 84.614 L 65.134 84.614 L 65.134 84.614 Q 65.62 85.099 65.828 85.411 L 65.828 85.411 L 65.828 85.411 Q 66.035 85.723 65.897 86.209 L 65.897 86.209 L 65.897 86.209 Q 65.55 87.11 64.51 87.526 L 64.51 87.526 L 64.51 87.526 Q 63.471 87.942 61.322 87.942 L 61.322 87.942 L 45.516 87.942 L 45.516 87.942 Q 43.713 87.942 42.881 87.352 L 42.881 87.352 L 42.881 87.352 Q 42.05 86.763 42.327 85.793 L 42.327 85.793 L 42.327 85.793 Q 42.604 84.961 43.783 84.337 L 43.783 84.337 L 43.783 84.337 Q 44.823 83.782 45.516 83.02 L 45.516 83.02 L 45.516 83.02 Q 46.209 82.257 46.694 80.593 L 46.694 80.593 L 57.231 46.001 L 57.231 46.001 Q 57.439 45.377 57.439 44.961 L 57.439 44.961 L 57.439 44.961 Q 57.439 44.199 57.058 43.713 L 57.058 43.713 L 57.058 43.713 Q 56.677 43.228 56.053 42.743 L 56.053 42.743 L 56.053 42.743 Q 55.36 42.188 55.048 41.772 L 55.048 41.772 L 55.048 41.772 Q 54.736 41.356 54.944 40.663 L 54.944 40.663 L 54.944 40.663 Q 55.36 39.069 59.311 37.89 L 59.311 37.89 L 59.311 37.89 Q 63.263 36.712 67.561 36.712 L 67.561 36.712 L 67.561 36.712 Q 71.581 36.712 73.488 38.237 L 73.488 38.237 L 73.488 38.237 Q 75.394 39.762 75.394 42.396 L 75.394 42.396 L 75.394 42.396 Q 75.394 43.921 74.909 45.377 L 74.909 45.377 L 71.165 57.578 L 71.165 57.578 Q 73.869 54.043 76.885 52.656 L 76.885 52.656 L 76.885 52.656 Q 79.9 51.27 83.436 51.27 L 83.436 51.27 L 83.436 51.27 Q 87.664 51.27 90.264 53.835 L 90.264 53.835 L 90.264 53.835 Q 92.864 56.4 92.864 60.49 L 92.864 60.49 L 92.864 60.49 Q 92.864 62.639 92.17 64.718 L 92.17 64.718 Z  M 104.441 46.764 L 104.441 46.764 Q 104.926 36.434 114.908 36.434 L 114.908 36.434 L 114.908 36.434 Q 118.721 36.434 120.836 38.098 L 120.836 38.098 L 120.836 38.098 Q 122.95 39.762 122.95 42.743 L 122.95 42.743 L 122.95 42.743 Q 122.95 45.793 120.801 49.675 L 120.801 49.675 L 109.917 69.086 L 109.917 69.086 Q 109.085 70.68 108.219 71.339 L 108.219 71.339 L 108.219 71.339 Q 107.352 71.997 106.104 71.997 L 106.104 71.997 L 106.104 71.997 Q 103.401 71.997 103.539 68.739 L 103.539 68.739 L 104.441 46.764 Z  M 104.233 73.938 L 104.233 73.938 Q 107.006 73.938 108.912 75.81 L 108.912 75.81 L 108.912 75.81 Q 110.818 77.682 110.818 80.385 L 110.818 80.385 L 110.818 80.385 Q 110.818 82.257 109.813 84.06 L 109.813 84.06 L 109.813 84.06 Q 108.808 85.862 107.04 87.006 L 107.04 87.006 L 107.04 87.006 Q 105.273 88.15 103.054 88.15 L 103.054 88.15 L 103.054 88.15 Q 100.351 88.15 98.479 86.278 L 98.479 86.278 L 98.479 86.278 Q 96.607 84.406 96.538 81.703 L 96.538 81.703 L 96.538 81.703 Q 96.538 79.831 97.508 78.028 L 97.508 78.028 L 97.508 78.028 Q 98.479 76.226 100.247 75.082 L 100.247 75.082 L 100.247 75.082 Q 102.014 73.938 104.233 73.938 L 104.233 73.938 Z " fill="rgb(16,16,16)"/></g></svg>